Screenshots: 
http://postimg.org/image/uexobtr35/

General
Complete name                            : Trigg Da Kidd_Fired Up.mov
Format                                   : MPEG-4
Format profile                           : QuickTime
Codec ID                                 : qt  
File size                                : 1.65 GiB
Duration                                 : 4mn 10s
Overall bit rate mode                    : Variable
Overall bit rate                         : 56.6 Mbps
Encoded date                             : UTC 2012-09-05 02:40:58
Tagged date                              : UTC 2012-09-05 02:44:00
Writing library                          : Apple QuickTime

Video
ID                                       : 2
Format                                   : ProRes
Format version                           : Version 0
Codec ID                                 : apcn
Duration                                 : 4mn 10s
Bit rate mode                            : Variable
Bit rate                                 : 55.1 Mbps
Width                                    : 1 280 pixels
Height                                   : 720 pixels
Display aspect ratio                     : 16:9
Frame rate mode                          : Constant
Frame rate                               : 23.976 fps
Color space                              : YUV
Chroma subsampling                       : 4:2:2
Scan type                                : Progressive
Bits/(Pixel*Frame)                       : 2.493
Stream size                              : 1.60 GiB (97%)
Writing library                          : Apple
Language                                 : English
Encoded date                             : UTC 2012-09-05 02:32:30
Tagged date                              : UTC 2012-09-05 02:44:00
Matrix coefficients                      : BT.709

Audio
ID                                       : 1
Format                                   : PCM
Format settings, Endianness              : Little
Format settings, Sign                    : Signed
Codec ID                                 : sowt
Duration                                 : 4mn 10s
Bit rate mode                            : Constant
Bit rate                                 : 1 536 Kbps
Channel(s)                               : 2 channels
Channel positions                        : Front: L R
Sampling rate                            : 48.0 KHz
Bit depth                                : 16 bits
Stream size                              : 45.8 MiB (3%)
Language                                 : English
Encoded date                             : UTC 2012-09-05 02:32:30
Tagged date                              : UTC 2012-09-05 02:44:00

Taken from http://music-vid.com